HIERARCHY
ROOT Hips
{
	OFFSET 0.000000 0.000000 0.000000
	CHANNELS 6 Xposition Yposition Zposition Yrotation Xrotation Zrotation
	JOINT Chest
	{
		OFFSET 0.000000 -0.009281 11.569106
		CHANNELS 3 Yrotation Xrotation Zrotation
		JOINT Chest2
		{
			OFFSET -0.000000 0.016865 9.269641
			CHANNELS 3 Yrotation Xrotation Zrotation
			JOINT Chest3
			{
				OFFSET -0.000000 0.000001 8.374491
				CHANNELS 3 Yrotation Xrotation Zrotation
				JOINT Chest4
				{
					OFFSET -0.000000 0.000001 8.374493
					CHANNELS 3 Yrotation Xrotation Zrotation
					JOINT Neck
					{
						OFFSET -0.000000 0.000002 12.152554
						CHANNELS 3 Yrotation Xrotation Zrotation
						JOINT Head
						{
							OFFSET -0.000000 0.040101 7.802319
							CHANNELS 3 Yrotation Xrotation Zrotation
							End Site
							{
								OFFSET -0.000000 0.020947 14.853096
							}
						}
					}
					JOINT RightCollar
					{
						OFFSET 2.894404 0.000001 6.791374
						CHANNELS 3 Yrotation Xrotation Zrotation
						JOINT RightShoulder
						{
							OFFSET 13.574684 0.000001 0.000000
							CHANNELS 3 Yrotation Xrotation Zrotation
							JOINT RightElbow
							{
								OFFSET 23.923903 0.000002 0.000000
								CHANNELS 3 Yrotation Xrotation Zrotation
								JOINT RightWrist
								{
									OFFSET 19.846718 0.012767 0.000000
									CHANNELS 3 Yrotation Xrotation Zrotation
									End Site
									{
										OFFSET 14.973145 0.000001 0.000000
									}
								}
							}
						}
					}
					JOINT LeftCollar
					{
						OFFSET -2.894404 0.000001 6.791374
						CHANNELS 3 Yrotation Xrotation Zrotation
						JOINT LeftShoulder
						{
							OFFSET -13.574684 -0.000001 0.000000
							CHANNELS 3 Yrotation Xrotation Zrotation
							JOINT LeftElbow
							{
								OFFSET -23.923903 -0.000002 0.000000
								CHANNELS 3 Yrotation Xrotation Zrotation
								JOINT LeftWrist
								{
									OFFSET -19.846718 0.012763 0.000000
									CHANNELS 3 Yrotation Xrotation Zrotation
									End Site
									{
										OFFSET -14.973145 -0.000001 0.000000
									}
								}
							}
						}
					}
				}
			}
		}
	}
	JOINT RightHip
	{
		OFFSET 9.469263 0.004643 0.045487
		CHANNELS 3 Yrotation Xrotation Zrotation
		JOINT RightKnee
		{
			OFFSET 0.000000 0.002661 -40.478676
			CHANNELS 3 Yrotation Xrotation Zrotation
			JOINT RightAnkle
			{
				OFFSET 0.000000 0.049106 -35.224068
				CHANNELS 3 Yrotation Xrotation Zrotation
				JOINT RightToe
				{
					OFFSET -0.000001 12.539529 -6.151390
					CHANNELS 3 Yrotation Xrotation Zrotation
					End Site
					{
						OFFSET -0.000001 5.044994 -1.291870
					}
				}
			}
		}
	}
	JOINT LeftHip
	{
		OFFSET -9.469263 0.004641 0.045487
		CHANNELS 3 Yrotation Xrotation Zrotation
		JOINT LeftKnee
		{
			OFFSET 0.000000 0.002661 -40.478676
			CHANNELS 3 Yrotation Xrotation Zrotation
			JOINT LeftAnkle
			{
				OFFSET 0.000000 0.049106 -35.224068
				CHANNELS 3 Yrotation Xrotation Zrotation
				JOINT LeftToe
				{
					OFFSET -0.000001 12.539529 -6.151390
					CHANNELS 3 Yrotation Xrotation Zrotation
					End Site
					{
						OFFSET -0.000001 5.044994 -1.291870
					}
				}
			}
		}
	}
}
MOTION
Frames: 15
Frame Time: 0.016667
2.298301 -3.459545 80.994415 -4.099043 -3.491900 -97.800044 -7.891782 -6.300060 6.579016 -3.462145 -3.159286 1.561708 -3.462146 -3.159286 1.561708 -2.587888 -2.378417 1.153114 7.882650 -12.929939 -12.553527 9.804408 12.330005 -20.578892 2.726589 13.915885 -5.016806 26.214119 8.908746 42.059547 -19.248532 -16.030895 116.897363 -26.532271 -13.708732 -7.974904 -4.398090 -2.196187 -9.171596 -29.222329 -14.852673 -3.365507 -56.297301 -64.391246 -50.906117 -40.180237 5.346716 25.677845 3.906344 6.662727 -0.576547 11.493353 -24.852277 -6.310154 -8.720165 15.286030 -7.904961 0.264316 0.379054 0.702924 2.942237 9.752016 -5.494465 5.588433 -28.928173 -3.012343 2.766309 15.916011 2.915639 -2.074606 -0.886705 -0.687881 
2.124511 -3.525009 80.715347 -3.971008 -3.553087 -98.036738 -7.960667 -6.354489 6.841879 -3.491330 -3.224298 1.587276 -3.491332 -3.224299 1.587276 -2.609446 -2.427401 1.171751 7.951862 -12.680605 -12.448653 9.952759 12.800514 -20.360417 2.731342 13.318248 -5.169926 26.342675 9.164126 42.159978 -19.446527 -15.941301 117.967257 -28.684660 -13.315880 -6.353510 -4.369036 -2.085000 -9.253971 -29.175187 -14.814679 -3.379804 -56.153967 -64.440916 -51.123105 -40.196869 5.501783 25.853598 3.821243 7.776753 -0.640723 12.091216 -26.725192 -6.333371 -9.066952 16.083142 -8.094319 0.255257 0.438765 0.622515 2.920713 10.682045 -5.492111 5.811137 -30.565298 -2.943603 2.959557 16.778042 3.075203 -1.988854 -0.911311 -0.678232 
1.971187 -3.604444 80.427307 -3.922031 -3.597369 -98.161081 -8.006250 -6.480783 7.001480 -3.513726 -3.284665 1.609182 -3.513728 -3.284664 1.609182 -2.625935 -2.472864 1.187699 8.007689 -12.444268 -12.377698 10.064361 13.244292 -20.210786 2.756482 12.689715 -5.243588 26.397737 9.403178 42.290031 -19.535294 -15.945655 118.888390 -30.728669 -12.911171 -4.762718 -4.357481 -1.962948 -9.346800 -29.113176 -14.844993 -3.401130 -56.029275 -64.481828 -51.319746 -40.199051 5.587110 25.994249 3.769482 8.817768 -0.526296 12.706886 -28.559861 -6.649506 -9.371391 16.833273 -8.261000 0.252517 0.549636 0.515423 2.914021 11.494910 -5.558151 5.992736 -32.120822 -2.828213 3.051114 17.664888 3.039055 -1.848420 -0.963822 -0.567233 
1.831443 -3.685484 80.142067 -3.905637 -3.603131 -98.350899 -8.082880 -6.609020 7.219081 -3.539407 -3.351502 1.624854 -3.539404 -3.351502 1.624854 -2.644902 -2.523155 1.198912 8.072426 -12.208233 -12.323785 10.186757 13.687645 -20.089267 2.853285 12.237939 -5.228049 26.396335 9.524207 42.338188 -19.494572 -16.144298 119.709201 -32.774454 -12.356150 -3.160525 -4.336812 -1.815671 -9.444329 -29.025797 -14.846999 -3.438873 -55.993679 -64.539796 -51.436102 -40.219084 5.698987 26.090431 3.718542 9.794978 -0.020091 13.471630 -30.241373 -7.326178 -9.687186 17.509912 -8.460782 0.262512 0.670703 0.415587 2.871502 12.187045 -5.476572 6.241797 -33.520707 -2.825604 3.124833 18.501215 3.070400 -1.714497 -1.014030 -0.503669 
1.716017 -3.746319 79.872040 -3.913986 -3.547651 -98.594177 -8.209367 -6.726776 7.487105 -3.568381 -3.420477 1.635114 -3.568383 -3.420477 1.635114 -2.666353 -2.575027 1.206028 8.156698 -11.981764 -12.286259 10.341202 14.114485 -19.989764 2.893440 11.912676 -5.344621 26.457622 9.459871 42.450165 -19.408961 -16.421508 120.456205 -34.853236 -11.642407 -1.480117 -4.322802 -1.715581 -9.558830 -28.905374 -14.757083 -3.520272 -56.066940 -64.600981 -51.463826 -40.281556 5.840470 26.201152 3.589860 10.705340 0.692561 14.361946 -31.787270 -8.167160 -9.953946 18.122430 -8.596853 0.234639 0.801705 0.254230 2.751955 12.753147 -5.244158 6.602836 -34.730347 -2.974277 3.150794 19.251493 3.122848 -1.566069 -1.044418 -0.446055 
1.635503 -3.806039 79.623451 -3.949449 -3.500783 -98.721976 -8.302769 -6.879411 7.638785 -3.593472 -3.486124 1.637078 -3.593475 -3.486125 1.637078 -2.684947 -2.624344 1.206958 8.260467 -11.775004 -12.259491 10.530909 14.506232 -19.901073 2.883940 11.573755 -5.495333 26.574625 9.334877 42.615753 -19.350450 -16.693061 121.126575 -36.905250 -10.826804 0.186454 -4.342373 -1.657908 -9.669951 -28.765844 -14.602173 -3.629712 -56.171397 -64.664871 -51.450732 -40.342116 6.016738 26.304595 3.469782 11.480429 1.337169 15.264450 -33.109236 -8.960160 -10.245399 18.656450 -8.873683 0.204341 0.897641 0.120603 2.608883 13.246973 -5.183863 6.956782 -35.855433 -3.132403 3.139924 19.920476 3.198816 -1.410271 -1.029575 -0.384802 
1.551120 -3.886552 79.402779 -3.932461 -3.509403 -98.859414 -8.339372 -6.960302 7.791145 -3.615305 -3.545361 1.635815 -3.615309 -3.545361 1.635815 -2.701138 -2.668828 1.205523 8.390031 -11.595351 -12.247123 10.766998 14.849639 -19.827126 2.881487 11.216859 -5.598827 26.656855 9.188788 42.715706 -19.309621 -16.891792 121.801411 -38.700682 -10.094477 1.671264 -4.347733 -1.628429 -9.757183 -28.661161 -14.453946 -3.739307 -56.218765 -64.726055 -51.484163 -40.362887 6.190199 26.435624 3.480344 12.140926 1.872278 16.002194 -34.201817 -9.513349 -10.560602 19.098611 -9.197216 0.188963 0.960264 0.077036 2.556009 13.741794 -5.215399 7.210404 -36.888878 -3.226527 3.153588 20.494449 3.375043 -1.284054 -0.985538 -0.374791 
1.515655 -3.992435 79.217094 -3.970339 -3.542842 -98.825310 -8.353777 -7.103108 7.783605 -3.635496 -3.586376 1.632449 -3.635496 -3.586377 1.632449 -2.716161 -2.699626 1.202628 8.534657 -11.449026 -12.247158 11.030264 15.132270 -19.768552 2.851893 10.832152 -5.717176 26.730024 9.097770 42.786132 -19.172443 -17.162599 122.484676 -40.339463 -9.367575 3.070598 -4.392524 -1.493472 -9.828552 -28.610165 -14.466788 -3.740150 -56.132807 -64.763553 -51.625350 -40.364413 6.340983 26.560736 3.539005 12.609829 2.047827 16.497653 -35.126181 -9.853152 -10.810011 19.493975 -9.483513 0.156593 0.994625 0.052556 2.531174 14.112296 -5.491108 7.339026 -37.801863 -3.208579 3.135161 20.984914 3.493703 -1.151403 -0.912972 -0.338751 
1.504665 -4.129295 79.070244 -4.011897 -3.597975 -98.782690 -8.344919 -7.226862 7.751404 -3.650161 -3.614196 1.631312 -3.650162 -3.614195 1.631312 -2.727075 -2.720523 1.201517 8.671422 -11.329512 -12.253032 11.278909 15.364341 -19.723247 2.820441 10.395049 -5.806809 26.777946 9.178938 42.845268 -18.990595 -17.554807 123.181984 -41.803831 -8.641767 4.381349 -4.483378 -1.312434 -9.888423 -28.582779 -14.547347 -3.647111 -55.997333 -64.787992 -51.795503 -40.380478 6.482469 26.660105 3.671545 12.923736 2.066439 16.762889 -35.876979 -10.026364 -10.980569 19.835178 -9.724875 0.113759 1.016515 0.042577 2.569023 14.388058 -5.759456 7.421429 -38.559901 -3.158795 3.089603 21.383815 3.573402 -1.031419 -0.818091 -0.309030 
1.523175 -4.281868 78.963478 -4.051358 -3.630095 -98.732017 -8.349433 -7.323790 7.694742 -3.662584 -3.628808 1.626644 -3.662586 -3.628809 1.626644 -2.736375 -2.731490 1.197852 8.790039 -11.233221 -12.253230 11.497714 15.551953 -19.673933 2.777386 9.917122 -5.836900 26.787315 9.378271 42.884384 -18.815590 -18.024082 123.813325 -43.218859 -7.821128 5.783422 -4.523895 -1.279515 -9.902808 -28.602653 -14.501634 -3.570305 -55.904931 -64.797868 -51.888995 -40.421551 6.600221 26.731197 3.802907 13.134826 1.981895 16.868001 -36.474638 -10.052894 -11.090702 20.105698 -9.815817 0.062953 1.028060 0.049399 2.592155 14.566330 -5.990545 7.508754 -39.137442 -3.140224 3.066645 21.672064 3.693067 -0.948875 -0.696688 -0.325122 
1.557450 -4.433007 78.896790 -4.042072 -3.634170 -98.737481 -8.366191 -7.346429 7.667264 -3.674781 -3.631285 1.618899 -3.674785 -3.631285 1.618899 -2.745560 -2.733335 1.191958 8.884577 -11.150143 -12.244808 11.675585 15.713207 -19.618076 2.716861 9.596448 -5.865686 26.658138 9.432545 42.844745 -18.653457 -18.455344 124.377185 -44.480654 -6.966828 7.131407 -4.555432 -1.300846 -9.884576 -28.634380 -14.427847 -3.489449 -55.892603 -64.811604 -51.911217 -40.444945 6.697360 26.816344 3.947307 13.284031 1.937832 16.871783 -36.864758 -9.972959 -11.178633 20.286318 -9.968636 0.014148 1.013319 0.065606 2.601691 14.687338 -6.080594 7.649389 -39.511251 -3.227839 3.081090 21.852787 3.877563 -0.901690 -0.569851 -0.388393 
1.604260 -4.580462 78.869965 -4.008212 -3.624386 -98.784077 -8.395536 -7.331093 7.666237 -3.691973 -3.631863 1.611095 -3.691974 -3.631864 1.611095 -2.758492 -2.733767 1.186001 8.976549 -11.070328 -12.236595 11.848979 15.868082 -19.563400 2.658752 9.585057 -5.927158 26.347393 9.195971 42.674144 -18.526629 -18.790561 124.875952 -45.661754 -6.019727 8.364975 -4.632031 -1.227138 -9.897216 -28.614745 -14.421564 -3.321342 -55.920825 -64.840325 -51.925844 -40.470151 6.774844 26.885904 4.073325 13.368029 1.984192 16.876492 -37.062727 -9.892363 -11.255934 20.361106 -10.081180 -0.019676 1.004286 0.101858 2.619091 14.742171 -6.062350 7.803374 -39.708664 -3.353068 3.107986 21.934097 4.063299 -0.871448 -0.434893 -0.469550 
1.665985 -4.710666 78.879570 -3.965296 -3.597948 -98.865226 -8.444223 -7.313578 7.688840 -3.713461 -3.637557 1.605419 -3.713463 -3.637558 1.605419 -2.774618 -2.738060 1.181583 9.069830 -10.978795 -12.236018 12.020836 16.044398 -19.522887 2.637885 9.679942 -5.941104 25.901831 8.962888 42.415328 -18.390865 -19.125373 125.331553 -46.673814 -5.138096 9.370658 -4.682123 -1.131321 -9.919117 -28.556852 -14.420379 -3.178656 -55.945106 -64.852052 -51.988866 -40.490601 6.851075 26.988934 4.170242 13.389347 2.172778 16.931016 -37.085704 -9.926452 -11.272998 20.353241 -10.117218 -0.068731 1.012333 0.092135 2.640061 14.729095 -5.994247 7.929208 -39.761598 -3.428537 3.105258 21.935294 4.160438 -0.829190 -0.294811 -0.512920 
1.731831 -4.832465 78.922287 -3.898645 -3.582142 -98.978819 -8.476268 -7.272868 7.716214 -3.734475 -3.641812 1.601666 -3.734478 -3.641815 1.601666 -2.790380 -2.741286 1.178617 9.145578 -10.892915 -12.245367 12.155356 16.208640 -19.508984 2.599619 9.670599 -5.939104 25.440324 8.908384 42.192011 -18.263576 -19.468244 125.708033 -47.570557 -4.312216 10.350905 -4.681654 -1.129091 -9.923315 -28.511213 -14.360152 -3.100398 -55.881292 -64.869927 -52.118643 -40.513486 6.922002 27.081418 4.292097 13.355561 2.454987 16.962491 -36.934227 -9.990561 -11.273370 20.256297 -10.163901 -0.094823 1.021635 0.113136 2.704106 14.667220 -5.914948 7.973158 -39.679479 -3.429606 3.104778 21.871980 4.230294 -0.784349 -0.170053 -0.552678 
1.808042 -4.941427 78.996460 -3.837221 -3.549861 -99.102247 -8.501254 -7.230758 7.721689 -3.753657 -3.640069 1.596986 -3.753659 -3.640070 1.596986 -2.804794 -2.740002 1.175004 9.188833 -10.820790 -12.264600 12.224262 16.344769 -19.528305 2.545282 9.552495 -5.911511 24.988911 9.032290 41.994793 -18.287193 -19.689412 126.014012 -48.490245 -3.388785 11.435699 -4.673984 -1.115578 -9.897876 -28.481817 -14.342883 -3.039746 -55.797185 -64.857127 -52.287765 -40.542637 7.015560 27.243985 4.398820 13.245431 2.728579 16.923050 -36.647701 -10.007253 -11.235227 20.106730 -10.210884 -0.121113 1.019881 0.127397 2.777831 14.530411 -5.849493 7.912284 -39.458027 -3.324852 3.103207 21.737538 4.257797 -0.728929 -0.056251 -0.577233 
